# xmcd CD database file
#
# Track frame offsets:
#	150
#	11385
#	28150
#	41035
#	54320
#	69147
#	85045
#	99136
#	113018
#	128143
#	141967
#	157619
#	177455
#	192658
#	206553
#	218844
#	232059
#	247754
#	261822
#	274276
#	291923
#
# Disc length: 4130 seconds
#
# Revision: 1
# Processed by: cddbd v1.4PL0 Copyright (c) Steve Scherf et al.
# Submitted via: CDex 1.50
#
DISCID=24102015
DTITLE=Eddie Raven - The RCA Singles A's and B's
DYEAR=2000
DGENRE=Country
TTITLE0=I Got Mexico
TTITLE1=Love Burning Down
TTITLE2=I Could Use Another You
TTITLE3=Folks Out on the Road
TTITLE4=She's Gonna Win Your Heart
TTITLE5=Looking for Ways
TTITLE6=Operator, Operator
TTITLE7=Just for the Sake of the Thrill
TTITLE8=I wanna Hear It From You
TTITLE9=Room to Run
TTITLE10=You Should Have Been Gone by Now
TTITLE11=We Robbed Trains
TTITLE12=Sometimes a Lady
TTITLE13=Right Hand Man
TTITLE14=You're Never Too Old for Young Love
TTITLE15=Other than Montreal
TTITLE16=Shine, Shine, Shine
TTITLE17=Stay With Me
TTITLE18=I'm Gonna Get You
TTITLE19=Joe Knows How to Live
TTITLE20='Til You Cry
EXTD=YEAR: 2000
EXTT0=
EXTT1=
EXTT2=
EXTT3=
EXTT4=
EXTT5=
EXTT6=
EXTT7=
EXTT8=
EXTT9=
EXTT10=
EXTT11=
EXTT12=
EXTT13=
EXTT14=
EXTT15=
EXTT16=
EXTT17=
EXTT18=
EXTT19=
EXTT20=
PLAYORDER=
